<svg width="1500" height="100" viewBox="0 0 1500 100" xmlns="http://www.w3.org/2000/svg">
  <defs>
    <radialGradient id="f1" cx="15%" cy="50%" r="28%">
      <stop offset="0%" stop-color="#0e8f7a" stop-opacity="0.35"/>
      <stop offset="100%" stop-color="#0a0a1e" stop-opacity="0"/>
    </radialGradient>
    <radialGradient id="f2" cx="50%" cy="45%" r="32%">
      <stop offset="0%" stop-color="#0e3a9f" stop-opacity="0.38"/>
      <stop offset="100%" stop-color="#0a0a1e" stop-opacity="0"/>
    </radialGradient>
    <radialGradient id="f3" cx="82%" cy="55%" r="24%">
      <stop offset="0%" stop-color="#8f6a0e" stop-opacity="0.28"/>
      <stop offset="100%" stop-color="#0a0a1e" stop-opacity="0"/>
    </radialGradient>
    <radialGradient id="f4" cx="35%" cy="70%" r="18%">
      <stop offset="0%" stop-color="#0e6a3a" stop-opacity="0.20"/>
      <stop offset="100%" stop-color="#0a0a1e" stop-opacity="0"/>
    </radialGradient>
    <style>
      @keyframes tw{0%,100%{opacity:1}50%{opacity:.08}}
      .s1{animation:tw 2.1s 0.1s ease-in-out infinite}
      .s2{animation:tw 2.5s 0.6s ease-in-out infinite}
      .s3{animation:tw 1.8s 1.0s ease-in-out infinite}
      .s4{animation:tw 3.2s 0.3s ease-in-out infinite}
      .s5{animation:tw 2.7s 1.4s ease-in-out infinite}
      .s6{animation:tw 1.6s 0.8s ease-in-out infinite}
      .s7{animation:tw 3.7s 1.2s ease-in-out infinite}
      .s8{animation:tw 3.0s 1.8s ease-in-out infinite}
      .s9{animation:tw 4.2s 0.5s ease-in-out infinite}
      .s0{animation:tw 1.9s 2.1s ease-in-out infinite}
    </style>
  </defs>
  <rect width="1500" height="100" fill="#0a0a1e"/>
  <rect width="1500" height="100" fill="url(#f1)"/>
  <rect width="1500" height="100" fill="url(#f2)"/>
  <rect width="1500" height="100" fill="url(#f3)"/>
  <rect width="1500" height="100" fill="url(#f4)"/>

  <circle class="s2" cx="18"   cy="72"  r="0.8" fill="#ffffff"/>
  <circle class="s3" cx="61"   cy="38"  r="0.6" fill="#bbe8ff"/>
  <circle class="s4" cx="104"  cy="81"  r="1.0" fill="#ffffff"/>
  <circle class="s5" cx="148"  cy="24"  r="0.7" fill="#ffffff"/>
  <circle class="s6" cx="193"  cy="61"  r="1.1" fill="#ffd9aa"/>
  <circle class="s7" cx="237"  cy="14"  r="0.5" fill="#bbe8ff"/>
  <circle class="s8" cx="281"  cy="79"  r="0.9" fill="#ffffff"/>
  <circle class="s9" cx="325"  cy="47"  r="0.6" fill="#ffffff"/>
  <circle class="s0" cx="369"  cy="26"  r="1.0" fill="#bbffdd"/>
  <circle class="s1" cx="414"  cy="83"  r="0.7" fill="#ffffff"/>
  <circle class="s2" cx="458"  cy="16"  r="1.3" fill="#ffffff"/>
  <circle class="s3" cx="502"  cy="55"  r="0.5" fill="#bbe8ff"/>
  <circle class="s4" cx="546"  cy="35"  r="0.8" fill="#ffffff"/>
  <circle class="s5" cx="591"  cy="71"  r="1.0" fill="#ffd9aa"/>
  <circle class="s6" cx="635"  cy="12"  r="0.6" fill="#ffffff"/>
  <circle class="s7" cx="679"  cy="62"  r="0.9" fill="#ffffff"/>
  <circle class="s8" cx="724"  cy="41"  r="0.5" fill="#bbffdd"/>
  <circle class="s9" cx="768"  cy="88"  r="1.1" fill="#ffffff"/>
  <circle class="s0" cx="812"  cy="23"  r="0.7" fill="#bbe8ff"/>
  <circle class="s1" cx="857"  cy="67"  r="0.9" fill="#ffffff"/>
  <circle class="s2" cx="901"  cy="45"  r="0.6" fill="#ffffff"/>
  <circle class="s3" cx="946"  cy="85"  r="1.0" fill="#ffd9aa"/>
  <circle class="s4" cx="990"  cy="13"  r="0.8" fill="#ffffff"/>
  <circle class="s5" cx="1034" cy="54"  r="1.2" fill="#bbe8ff"/>
  <circle class="s6" cx="1079" cy="32"  r="0.5" fill="#ffffff"/>
  <circle class="s7" cx="1123" cy="76"  r="0.9" fill="#bbffdd"/>
  <circle class="s8" cx="1167" cy="19"  r="0.7" fill="#ffffff"/>
  <circle class="s9" cx="1212" cy="61"  r="1.0" fill="#ffffff"/>
  <circle class="s0" cx="1256" cy="40"  r="0.6" fill="#bbe8ff"/>
  <circle class="s1" cx="1301" cy="84"  r="0.8" fill="#ffffff"/>
  <circle class="s2" cx="1345" cy="17"  r="1.1" fill="#ffd9aa"/>
  <circle class="s3" cx="1389" cy="57"  r="0.6" fill="#ffffff"/>
  <circle class="s4" cx="1434" cy="31"  r="0.9" fill="#bbe8ff"/>
  <circle class="s5" cx="1478" cy="69"  r="0.7" fill="#ffffff"/>
  <circle class="s6" cx="42"   cy="50"  r="0.6" fill="#ffffff"/>
  <circle class="s7" cx="130"  cy="89"  r="0.5" fill="#ffd9aa"/>
  <circle class="s8" cx="315"  cy="67"  r="0.7" fill="#ffffff"/>
  <circle class="s9" cx="480"  cy="92"  r="0.5" fill="#bbe8ff"/>
  <circle class="s0" cx="570"  cy="8"   r="0.6" fill="#ffffff"/>
  <circle class="s1" cx="660"  cy="90"  r="0.7" fill="#bbffdd"/>
  <circle class="s2" cx="750"  cy="6"   r="0.5" fill="#ffffff"/>
  <circle class="s3" cx="840"  cy="91"  r="0.6" fill="#ffffff"/>
  <circle class="s4" cx="930"  cy="7"   r="0.5" fill="#bbe8ff"/>
  <circle class="s5" cx="1020" cy="93"  r="0.7" fill="#ffffff"/>
  <circle class="s6" cx="1110" cy="5"   r="0.5" fill="#ffd9aa"/>
  <circle class="s7" cx="1200" cy="90"  r="0.6" fill="#ffffff"/>
  <circle class="s8" cx="1290" cy="6"   r="0.7" fill="#bbffdd"/>
  <circle class="s9" cx="1380" cy="92"  r="0.5" fill="#ffffff"/>
  <circle class="s0" cx="1470" cy="8"   r="0.6" fill="#bbe8ff"/>
  <circle class="s3" cx="220"  cy="48"  r="0.6" fill="#ffffff"/>
  <circle class="s7" cx="700"  cy="30"  r="0.7" fill="#bbe8ff"/>
  <circle class="s1" cx="1050" cy="72"  r="0.5" fill="#ffffff"/>
  <circle class="s5" cx="1320" cy="45"  r="0.6" fill="#ffd9aa"/>

  <circle class="s4" cx="189"  cy="44"  r="2.0" fill="#bbe8ff"/>
  <circle class="s8" cx="612"  cy="28"  r="2.1" fill="#ffffff"/>
  <circle class="s2" cx="1056" cy="61"  r="1.9" fill="#bbffdd"/>
  <circle class="s6" cx="1423" cy="38"  r="1.8" fill="#bbe8ff"/>
  <circle class="s0" cx="834"  cy="15"  r="1.8" fill="#ffd9aa"/>
</svg>
